<svg xmlns="http://www.w3.org/2000/svg" viewBox="0 0 69 12"><title>red_stars</title><path d="M6.5,9.65l4,2.35L9.45,7.56l3.55-3L8.33,4.19,6.5,0,4.67,4.19,0,4.58l3.55,3L2.48,12Z" style="fill:#b71c1c"/><path d="M20.5,9.65l4,2.35L23.45,7.56l3.55-3-4.67-.39L20.5,0,18.67,4.19,14,4.58l3.55,3L16.48,12Z" style="fill:#b71c1c"/><path d="M34.5,9.65l4,2.35L37.45,7.56l3.55-3-4.67-.39L34.5,0,32.67,4.19,28,4.58l3.55,3L30.48,12Z" style="fill:#b71c1c"/><path d="M48.5,9.65l4,2.35L51.45,7.56l3.55-3-4.67-.39L48.5,0,46.67,4.19,42,4.58l3.55,3L44.48,12Z" style="fill:#b71c1c"/><path d="M62.5,9.65l4,2.35L65.45,7.56l3.55-3-4.67-.39L62.5,0,60.67,4.19,56,4.58l3.55,3L58.48,12Z" style="fill:#b71c1c"/></svg>